<svg xmlns="http://www.w3.org/2000/svg" width="24" height="24" viewBox="0 0 24 24"><path d="M19.256 12c0 4.008-3.249 7.256-7.256 7.256-4.008 0-7.256-3.248-7.256-7.256 0-.478.047-.944.135-1.396h-4.879v9.646c0 2.071 1.678 3.75 3.75 3.75h16.5c2.07 0 3.75-1.679 3.75-3.75v-9.646h-4.88c.088.452.136.918.136 1.396m.994-12h-16.5c-2.072 0-3.75 1.679-3.75 3.75v4.063h6.075c1.314-1.856 3.477-3.069 5.925-3.069 2.447 0 4.61 1.213 5.924 3.07h6.076v-4.064c0-2.071-1.68-3.75-3.75-3.75m1.833 4.632c0 .369-.301.67-.669.67h-2.01c-.368 0-.67-.301-.67-.67v-2.008c0-.369.302-.67.67-.67h2.01c.368 0 .669.301.669.67v2.008zm-5.618 7.368c0-2.466-1.999-4.465-4.465-4.465-2.466 0-4.465 1.999-4.465 4.465 0 2.466 1.999 4.465 4.465 4.465 2.466 0 4.465-1.999 4.465-4.465"/></svg>