<svg xmlns="http://www.w3.org/2000/svg" width="80" height="40" viewBox="0 0 80 40"><path fill="#fff" d="M60 0c-11.046 0-20 8.954-20 20s8.954 20 20 20 20-8.954 20-20-8.954-20-20-20zm7.928 21.654l-11.314 11.314c-.391.391-.902.586-1.414.586s-1.023-.195-1.414-.586c-.781-.78-.781-2.048 0-2.828l9.899-9.899-9.899-9.9c-.781-.781-.781-2.047 0-2.828.78-.781 2.047-.781 2.828 0l11.313 11.313c.782.781.782 2.047.001 2.828zM0 20c0 11.046 8.954 20 20 20s20-8.954 20-20-8.954-20-20-20-20 8.954-20 20zm12.072-1.174l11.314-11.314c.781-.781 2.048-.781 2.828 0 .781.781.781 2.047 0 2.828l-9.899 9.9 9.899 9.899c.781.78.781 2.048 0 2.828-.391.391-.902.586-1.414.586s-1.023-.195-1.414-.586l-11.314-11.313c-.781-.781-.781-2.047 0-2.828z"/></svg>