<svg xmlns="http://www.w3.org/2000/svg" width="24" height="24" viewBox="0 0 24 24"><path d="M13.702 15.509c-.13 0-.259.034-.386.106s-.248.176-.361.314v-1.97h-.847v6.117h.847v-.346c.111.138.229.239.358.306.13.065.274.099.438.099.249 0 .439-.085.57-.256.133-.17.198-.416.198-.736v-2.504c0-.369-.07-.648-.211-.843-.138-.191-.341-.287-.606-.287zm-.045 3.511c0 .144-.025.247-.074.31-.048.065-.123.097-.227.097l-.201-.05c-.065-.031-.131-.085-.2-.158v-2.813l.174-.138.177-.043c.114 0 .2.039.261.118.059.079.091.194.091.347v2.33zM10.451 18.99c-.079.099-.166.179-.26.242s-.172.095-.233.095c-.078 0-.136-.023-.171-.072-.035-.046-.053-.124-.053-.23v-3.46h-.838v3.771c0 .27.049.47.147.604.099.136.245.204.439.204.156 0 .319-.049.487-.145.167-.097.328-.237.482-.42v.498h.839v-4.513h-.839v3.426zM8.906 13.96h-2.899v.889h.977v5.228h.944v-5.228h.978zM11.086 10.082c.026.029.182.068.296.068.128 0 .347-.043.377-.074.053-.055.241-.135.241-.243v-3.364c0-.075-.183-.125-.23-.168-.051-.045-.206-.066-.305-.066-.115 0-.312.036-.335.057-.047.047-.214.101-.214.177v3.364c0 .118.128.2.17.249zM21 0h-18c-1.65 0-3 1.35-3 3v18c0 1.649 1.35 3 3 3h18c1.65 0 3-1.351 3-3v-18c0-1.65-1.35-3-3-3zm-6.833 10.267v-5.309h1.083v4.881c0 .146.104.188.165.199.011 0 .299-.004.43-.095.09-.059.488-.136.488-.229v-4.756h1.084v6.5h-1.084v-.333c0 .093-.412.172-.526.238-.263.149-.618.225-.869.225-.334 0-.478-.126-.652-.364-.164-.226-.119-.538-.119-.957zm-2.696-5.539c.534 0 .849.173 1.191.512.345.339.422.779.422 1.309v3.193c0 .585-.073 1.055-.411 1.396-.34.343-.756.516-1.335.516-.562 0-.835-.18-1.176-.532-.341-.35-.329-.821-.329-1.404v-3.203c0-.54.019-.979.373-1.304.349-.32.689-.483 1.265-.483zm-4.552-1.937l.708 2.821.673-2.821h1.78l-1.33 5.015v3.652h-1.98l.01-3.4-1.626-5.267h1.765zm12.665 15.167c0 1.795-1.456 3.251-3.251 3.251h-8.666c-1.795 0-3.25-1.456-3.25-3.251v-2.167c0-1.793 1.456-3.25 3.25-3.25h8.667c1.795 0 3.251 1.457 3.251 3.25v2.167zM16.427 15.449c-.375 0-.682.125-.919.372-.236.246-.354.564-.354.956v2.026c0 .435.107.775.323 1.023s.512.372.887.372c.418 0 .732-.116.941-.351.212-.234.316-.582.316-1.045v-.34h-.864v.313c0 .267-.027.438-.082.515-.056.078-.153.117-.293.117-.133 0-.226-.046-.283-.138-.055-.092-.082-.257-.082-.494v-.851h1.604v-1.149c0-.427-.103-.757-.31-.983-.205-.228-.501-.343-.884-.343zm.33 1.778h-.74v-.457c0-.189.028-.324.087-.405.058-.081.154-.124.287-.124.129 0 .221.043.279.124.058.081.087.216.087.405v.457z"/></svg>