<?xml version="1.0" encoding="utf-8"?>
<!-- Generator: Adobe Illustrator 16.0.0, SVG Export Plug-In . SVG Version: 6.00 Build 0)  -->
<!DOCTYPE svg PUBLIC "-//W3C//DTD SVG 1.1//EN" "http://www.w3.org/Graphics/SVG/1.1/DTD/svg11.dtd">
<svg version="1.1" id="Layer_1" xmlns="http://www.w3.org/2000/svg" xmlns:xlink="http://www.w3.org/1999/xlink" x="0px" y="0px"
	 width="80px" height="40px" viewBox="0 0 80 40" enable-background="new 0 0 80 40" xml:space="preserve">
<path fill="#FFFFFF" d="M60,0C48.954,0,40,8.954,40,20s8.954,20,20,20s20-8.954,20-20S71.046,0,60,0z M67.928,21.654L56.614,32.968
	c-0.391,0.391-0.902,0.586-1.414,0.586s-1.023-0.195-1.414-0.586c-0.781-0.78-0.781-2.048,0-2.828l9.899-9.899l-9.899-9.9
	c-0.781-0.781-0.781-2.047,0-2.828c0.78-0.781,2.047-0.781,2.828,0l11.313,11.313C68.709,19.607,68.709,20.873,67.928,21.654z"/>
<path fill="#FFFFFF" d="M0,20c0,11.046,8.954,20,20,20s20-8.954,20-20S31.046,0,20,0S0,8.954,0,20z M12.072,18.826L23.386,7.512
	c0.781-0.781,2.048-0.781,2.828,0c0.781,0.781,0.781,2.047,0,2.828l-9.899,9.9l9.899,9.899c0.781,0.78,0.781,2.048,0,2.828
	c-0.391,0.391-0.902,0.586-1.414,0.586s-1.023-0.195-1.414-0.586L12.072,21.654C11.291,20.873,11.291,19.607,12.072,18.826z"/>
</svg>
