<?xml version="1.0" encoding="utf-8"?>
<!-- Generator: Adobe Illustrator 16.0.0, SVG Export Plug-In . SVG Version: 6.00 Build 0)  -->
<!DOCTYPE svg PUBLIC "-//W3C//DTD SVG 1.1//EN" "http://www.w3.org/Graphics/SVG/1.1/DTD/svg11.dtd">
<svg version="1.1" id="Isolation_Mode" xmlns="http://www.w3.org/2000/svg" xmlns:xlink="http://www.w3.org/1999/xlink" x="0px"
	 y="0px" width="24px" height="24px" viewBox="0 0 24 24" enable-background="new 0 0 24 24" xml:space="preserve">
<path d="M19.256,12c0,4.008-3.249,7.256-7.256,7.256c-4.008,0-7.256-3.248-7.256-7.256c0-0.478,0.047-0.944,0.135-1.396H0v9.646
	C0,22.321,1.678,24,3.75,24h16.5c2.07,0,3.75-1.679,3.75-3.75v-9.646h-4.88C19.208,11.056,19.256,11.522,19.256,12 M20.25,0H3.75
	C1.678,0,0,1.679,0,3.75v4.063h6.075C7.389,5.957,9.552,4.744,12,4.744c2.447,0,4.61,1.213,5.924,3.07H24V3.75
	C24,1.679,22.32,0,20.25,0 M22.083,4.632c0,0.369-0.301,0.67-0.669,0.67h-2.01c-0.368,0-0.67-0.301-0.67-0.67V2.624
	c0-0.369,0.302-0.67,0.67-0.67h2.01c0.368,0,0.669,0.301,0.669,0.67V4.632z M16.465,12c0-2.466-1.999-4.465-4.465-4.465
	c-2.466,0-4.465,1.999-4.465,4.465c0,2.466,1.999,4.465,4.465,4.465C14.466,16.465,16.465,14.466,16.465,12"/>
</svg>
