<?xml version="1.0" encoding="utf-8"?>
<!-- Generator: Adobe Illustrator 16.0.0, SVG Export Plug-In . SVG Version: 6.00 Build 0)  -->
<!DOCTYPE svg PUBLIC "-//W3C//DTD SVG 1.1//EN" "http://www.w3.org/Graphics/SVG/1.1/DTD/svg11.dtd">
<svg version="1.1" id="Isolation_Mode" xmlns="http://www.w3.org/2000/svg" xmlns:xlink="http://www.w3.org/1999/xlink" x="0px"
	 y="0px" width="24px" height="24px" viewBox="0 0 24 24" enable-background="new 0 0 24 24" xml:space="preserve">
<g>
	<path d="M13.702,15.509c-0.13,0-0.259,0.034-0.386,0.106s-0.248,0.176-0.361,0.314v-1.97h-0.847v6.117h0.847V19.73
		c0.111,0.138,0.229,0.239,0.358,0.306c0.13,0.065,0.274,0.099,0.438,0.099c0.249,0,0.439-0.085,0.57-0.256
		c0.133-0.17,0.198-0.416,0.198-0.736v-2.504c0-0.369-0.07-0.648-0.211-0.843C14.17,15.605,13.967,15.509,13.702,15.509z
		 M13.657,19.02c0,0.144-0.025,0.247-0.074,0.31c-0.048,0.065-0.123,0.097-0.227,0.097c-0.07,0-0.138-0.016-0.201-0.05
		c-0.065-0.031-0.131-0.085-0.2-0.158v-2.813c0.058-0.062,0.115-0.107,0.174-0.138c0.059-0.028,0.117-0.043,0.177-0.043
		c0.114,0,0.2,0.039,0.261,0.118c0.059,0.079,0.091,0.194,0.091,0.347V19.02z"/>
	<path d="M10.451,18.99c-0.079,0.099-0.166,0.179-0.26,0.242c-0.094,0.063-0.172,0.095-0.233,0.095
		c-0.078,0-0.136-0.023-0.171-0.072c-0.035-0.046-0.053-0.124-0.053-0.23v-3.46H8.896v3.771c0,0.27,0.049,0.47,0.147,0.604
		c0.099,0.136,0.245,0.204,0.439,0.204c0.156,0,0.319-0.049,0.487-0.145c0.167-0.097,0.328-0.237,0.482-0.42v0.498h0.839v-4.513
		h-0.839V18.99z"/>
	<polygon points="8.906,13.96 6.007,13.96 6.007,14.849 6.984,14.849 6.984,20.077 7.928,20.077 7.928,14.849 8.906,14.849 	"/>
	<path d="M11.086,10.082c0.026,0.029,0.182,0.068,0.296,0.068c0.128,0,0.347-0.043,0.377-0.074C11.812,10.021,12,9.941,12,9.833
		V6.469c0-0.075-0.183-0.125-0.23-0.168c-0.051-0.045-0.206-0.066-0.305-0.066c-0.115,0-0.312,0.036-0.335,0.057
		c-0.047,0.047-0.214,0.101-0.214,0.177v3.364C10.916,9.951,11.044,10.033,11.086,10.082z"/>
	<path d="M21,0H3C1.35,0,0,1.35,0,3v18c0,1.649,1.35,3,3,3h18c1.65,0,3-1.351,3-3V3C24,1.35,22.65,0,21,0z M14.167,10.267V4.958
		h1.083v4.881c0,0.146,0.104,0.188,0.165,0.199c0.011,0,0.299-0.004,0.43-0.095c0.09-0.059,0.488-0.136,0.488-0.229V4.958h1.084v6.5
		h-1.084v-0.333c0,0.093-0.412,0.172-0.526,0.238c-0.263,0.149-0.618,0.225-0.869,0.225c-0.334,0-0.478-0.126-0.652-0.364
		C14.122,10.998,14.167,10.686,14.167,10.267z M11.471,4.728c0.534,0,0.849,0.173,1.191,0.512c0.345,0.339,0.422,0.779,0.422,1.309
		v3.193c0,0.585-0.073,1.055-0.411,1.396c-0.34,0.343-0.756,0.516-1.335,0.516c-0.562,0-0.835-0.18-1.176-0.532
		c-0.341-0.35-0.329-0.821-0.329-1.404V6.515c0-0.54,0.019-0.979,0.373-1.304C10.555,4.891,10.895,4.728,11.471,4.728z M6.919,2.791
		l0.708,2.821L8.3,2.791h1.78L8.75,7.806v3.652H6.77l0.01-3.4L5.154,2.791H6.919z M19.584,17.958c0,1.795-1.456,3.251-3.251,3.251
		H7.667c-1.795,0-3.25-1.456-3.25-3.251v-2.167c0-1.793,1.456-3.25,3.25-3.25h8.667c1.795,0,3.251,1.457,3.251,3.25V17.958z"/>
	<path d="M16.427,15.449c-0.375,0-0.682,0.125-0.919,0.372c-0.236,0.246-0.354,0.564-0.354,0.956v2.026
		c0,0.435,0.107,0.775,0.323,1.023s0.512,0.372,0.887,0.372c0.418,0,0.732-0.116,0.941-0.351c0.212-0.234,0.316-0.582,0.316-1.045
		v-0.34h-0.864v0.313c0,0.267-0.027,0.438-0.082,0.515c-0.056,0.078-0.153,0.117-0.293,0.117c-0.133,0-0.226-0.046-0.283-0.138
		c-0.055-0.092-0.082-0.257-0.082-0.494v-0.851h1.604v-1.149c0-0.427-0.103-0.757-0.31-0.983
		C17.106,15.564,16.81,15.449,16.427,15.449z M16.757,17.227h-0.74V16.77c0-0.189,0.028-0.324,0.087-0.405
		c0.058-0.081,0.154-0.124,0.287-0.124c0.129,0,0.221,0.043,0.279,0.124c0.058,0.081,0.087,0.216,0.087,0.405V17.227z"/>
</g>
</svg>
