<?xml version="1.0" encoding="utf-8"?>
<!-- Generator: Adobe Illustrator 16.0.0, SVG Export Plug-In . SVG Version: 6.00 Build 0)  -->
<!DOCTYPE svg PUBLIC "-//W3C//DTD SVG 1.1//EN" "http://www.w3.org/Graphics/SVG/1.1/DTD/svg11.dtd">
<svg version="1.1" id="Isolation_Mode" xmlns="http://www.w3.org/2000/svg" xmlns:xlink="http://www.w3.org/1999/xlink" x="0px"
	 y="0px" width="24px" height="24px" viewBox="0 0 24 24" enable-background="new 0 0 24 24" xml:space="preserve">
<path d="M21,0H3C1.35,0,0,1.351,0,3v18c0,1.649,1.35,3,3,3h9.104v-8.605H9.229v-3.749h2.874V9.768c0-2.896,2.138-5.163,4.867-5.163
	h2.648v4.233H17.25c-0.621,0-0.803,0.356-0.803,0.849v1.959h3.172v3.749h-3.172V24H21c1.65,0,3-1.351,3-3V3C24,1.351,22.65,0,21,0"
	/>
</svg>
